<svg xmlns="http://www.w3.org/2000/svg" xmlns:xlink="http://www.w3.org/1999/xlink" zoomAndPan="magnify" preserveAspectRatio="xMidYMid meet" version="1.0" viewBox="13.38 8.06 295.41 171.54"><defs><g/><clipPath id="91b024ab31"><path d="M 0.398438 13 L 1 13 L 1 14 L 0.398438 14 Z M 0.398438 13 " clip-rule="nonzero"/></clipPath><clipPath id="471f4885c2"><rect x="0" width="11" y="0" height="18"/></clipPath></defs><path fill="#0c8a4b" d="M 159.792969 10.472656 C 158.703125 12.21875 150.3125 20.945312 141.15625 30 C 121.535156 49.417969 117.71875 55.417969 116.957031 68.074219 L 116.410156 75.816406 L 102.023438 90 C 78.480469 113.128906 76.191406 117.710938 75.644531 142.363281 C 75.429688 151.308594 75.210938 159.054688 75.210938 159.492188 C 75.210938 159.816406 72.59375 160.691406 69.542969 161.34375 C 54.390625 164.617188 12.097656 178.253906 13.40625 179.5625 C 13.625 179.78125 18.75 179.019531 24.851562 177.816406 C 35.859375 175.636719 72.8125 170.507812 81.207031 169.964844 L 85.566406 169.636719 L 86.109375 147.816406 C 86.65625 126.109375 86.65625 126 89.925781 120 C 93.085938 114.109375 113.140625 92.726562 115.429688 92.726562 C 116.304688 92.726562 116.628906 103.636719 116.628906 129.816406 L 116.628906 166.910156 L 126.441406 166.910156 L 126.441406 118.035156 C 126.441406 64.472656 126.550781 63.382812 132.871094 54.21875 C 136.140625 49.527344 159.140625 26.074219 161.320312 25.308594 C 161.863281 25.089844 168.730469 31.199219 176.472656 38.945312 C 185.953125 48.328125 191.511719 54.871094 193.582031 58.910156 L 196.746094 64.910156 L 197.070312 115.855469 L 197.398438 166.910156 L 207.101562 166.910156 L 207.316406 129.054688 L 207.644531 91.089844 L 219.199219 102.546875 C 227.375 110.726562 231.515625 115.855469 233.914062 120.546875 C 236.964844 126.980469 237.074219 127.527344 237.621094 148.363281 L 238.164062 169.636719 L 242.523438 169.964844 C 254.515625 170.835938 288.632812 175.746094 308.46875 179.5625 C 309.996094 179.78125 305.855469 177.816406 299.203125 175.199219 C 289.394531 171.164062 268.792969 164.945312 251.246094 160.582031 L 247.976562 159.710938 L 247.429688 141.273438 C 246.886719 123.710938 246.667969 122.398438 243.832031 116.835938 C 239.691406 108.761719 236.746094 105.273438 220.832031 89.453125 L 207.101562 75.925781 L 207.101562 70.144531 C 207.101562 57.492188 201.539062 48.546875 179.957031 27.273438 C 171.238281 18.546875 163.5 10.472656 162.953125 9.382812 C 161.863281 7.417969 161.648438 7.527344 159.792969 10.472656 Z M 159.792969 10.472656 " fill-opacity="1" fill-rule="nonzero"/><path fill="#0c8a4b" d="M 130.800781 88.363281 L 130.800781 95.019531 L 138.867188 102.871094 C 148.457031 112.363281 154.234375 120.871094 155.871094 128.183594 C 156.742188 131.78125 156.960938 138.980469 156.414062 149.671875 L 155.761719 165.816406 L 166.550781 165.816406 L 166.988281 146.398438 C 167.316406 127.636719 167.425781 126.871094 170.476562 120.65625 C 172.546875 116.398438 176.90625 110.835938 183.339844 104.398438 L 193.039062 94.582031 L 192.710938 87.925781 L 192.386719 81.273438 L 180.175781 93.164062 C 173.417969 99.710938 166.550781 107.019531 164.917969 109.417969 L 161.972656 113.671875 L 159.25 110.074219 C 155.542969 105.054688 137.558594 86.507812 133.851562 83.78125 L 130.800781 81.710938 Z M 130.800781 88.363281 " fill-opacity="1" fill-rule="nonzero"/><g transform="matrix(1, 0, 0, 1, 140, 148)"><g clip-path="url(#471f4885c2)"><g clip-path="url(#91b024ab31)"><g fill="#ffffff" fill-opacity="1"><g transform="translate(0.634999, 13.39441)"><g/></g></g></g><g fill="#ffffff" fill-opacity="1"><g transform="translate(3.128799, 13.39441)"><g/></g></g><g fill="#ffffff" fill-opacity="1"><g transform="translate(5.622598, 13.39441)"><g/></g></g><g fill="#ffffff" fill-opacity="1"><g transform="translate(8.116398, 13.39441)"><g/></g></g></g></g></svg>