<?xml version="1.0" encoding="utf-8"?><!-- Uploaded to: SVG Repo, www.svgrepo.com, Generator: SVG Repo Mixer Tools -->
<svg width="800px" height="800px" viewBox="0 0 24 24" fill="none" xmlns="http://www.w3.org/2000/svg"><path d="M12 22c5.523 0 10-4.477 10-10S17.523 2 12 2 2 6.477 2 12s4.477 10 10 10Z" fill="#000000" fill-opacity=".16" stroke="#000000" stroke-width="1.5" stroke-miterlimit="10"/><path d="M12 13a1 1 0 1 0 0-2 1 1 0 0 0 0 2ZM7 13a1 1 0 1 0 0-2 1 1 0 0 0 0 2ZM17 13a1 1 0 1 0 0-2 1 1 0 0 0 0 2Z" fill="#000000" stroke="#000000" stroke-width="1.5" stroke-miterlimit="10"/></svg>